<svg xmlns="http://www.w3.org/2000/svg" width="198" height="39" viewBox="0 0 198 39" fill="none"><g clip-path="url(#clip0_91_126)"><path d="M5.4165 19.5826C8.03986 19.5826 10.1665 17.456 10.1665 14.8326C10.1665 12.2093 8.03986 10.0826 5.4165 10.0826C2.79315 10.0826 0.666504 12.2093 0.666504 14.8326C0.666504 17.456 2.79315 19.5826 5.4165 19.5826Z" fill="#FF8080"></path><path d="M13.3333 11.666C15.9566 11.666 18.0833 9.53931 18.0833 6.91595C18.0833 4.2926 15.9566 2.16595 13.3333 2.16595C10.7099 2.16595 8.58325 4.2926 8.58325 6.91595C8.58325 9.53931 10.7099 11.666 13.3333 11.666Z" fill="#FF8080"></path><path d="M25.9998 11.666C28.6231 11.666 30.7498 9.53931 30.7498 6.91595C30.7498 4.2926 28.6231 2.16595 25.9998 2.16595C23.3764 2.16595 21.2498 4.2926 21.2498 6.91595C21.2498 9.53931 23.3764 11.666 25.9998 11.666Z" fill="#FF8080"></path><path d="M33.9165 19.5826C36.5399 19.5826 38.6665 17.456 38.6665 14.8326C38.6665 12.2093 36.5399 10.0826 33.9165 10.0826C31.2932 10.0826 29.1665 12.2093 29.1665 14.8326C29.1665 17.456 31.2932 19.5826 33.9165 19.5826Z" fill="#FF8080"></path><path d="M30.256 24.8168C28.5336 22.8515 27.0884 21.1751 25.3462 19.2098C24.4355 18.1693 23.2674 17.1289 21.8816 16.6664C21.6638 16.5894 21.4461 16.5316 21.2283 16.493C20.7334 16.416 20.1988 16.416 19.6841 16.416C19.1694 16.416 18.6348 16.416 18.1201 16.5123C17.9023 16.5508 17.6846 16.6086 17.4668 16.6857C16.081 17.1481 14.9327 18.1886 14.0022 19.2291C12.2798 21.1944 10.8346 22.8707 9.09244 24.8361C6.49897 27.3602 3.31157 30.154 3.9055 34.0654C4.47962 36.0307 5.92484 37.9768 8.51831 38.5356C9.96353 38.8246 14.5763 37.6878 19.4861 37.6878H19.8425C24.7523 37.6878 29.3651 38.8053 30.8103 38.5356C33.4038 37.9768 34.849 36.0115 35.4231 34.0654C36.0368 30.1347 32.8494 27.3409 30.256 24.8168Z" fill="#FF8080"></path></g><g clip-path="url(#clip1_91_126)"><path d="M50.5535 37.2255V1.93976H65.3311C70.1703 1.93976 73.7812 2.82846 76.164 4.60585C78.954 6.68096 80.3491 10.0869 80.3491 14.8237C80.3491 19.2094 79.1274 22.3509 76.6839 24.2483C74.5178 25.9679 71.2273 26.8277 66.8127 26.8277H62.9136V37.2255H50.5535ZM62.9591 11.751V17.6297H64.9087C65.87 17.6931 66.8231 17.4128 67.6056 16.8366C67.9181 16.5862 68.1686 16.2638 68.3369 15.8956C68.5051 15.5273 68.5863 15.1235 68.5738 14.717C68.5738 12.7397 67.3521 11.751 64.9087 11.751H62.9591Z" fill="#FF8080"></path><path d="M109.092 26.7677H92.3452V27.1543C92.3452 29.6605 93.2377 30.9135 95.0226 30.9135C96.1533 30.9135 96.9613 30.2715 97.4465 28.9873L108.371 29.7338C106.382 35.3592 101.87 38.1697 94.8341 38.1653C91.3131 38.2727 87.8787 37.0352 85.1969 34.6927C83.7608 33.5053 82.6055 31.9997 81.8176 30.289C81.0298 28.5782 80.6299 26.7067 80.648 24.8148C80.6168 22.9199 81.0109 21.0429 81.7996 19.329C82.5884 17.6151 83.7507 16.1101 85.1969 14.9303C87.898 12.6116 91.3326 11.386 94.8536 11.4844C97.2874 11.4363 99.6975 11.9823 101.885 13.0774C103.93 14.1639 105.68 15.7532 106.98 17.7031C108.474 19.949 109.231 22.6242 109.144 25.3414V26.1879C109.154 26.3827 109.136 26.578 109.092 26.7677ZM92.4557 21.3423L97.7845 21.3956C97.6935 19.4493 96.8097 18.4762 95.1331 18.4762C93.6255 18.4762 92.733 19.4382 92.4557 21.3623V21.3423Z" fill="#FF8080"></path><path d="M114.356 37.2255V21.4889H111.042V12.3042H114.356V4.03265H126.137V12.2775H129.497V21.4622H126.137V37.2255H114.356Z" fill="#FF8080"></path><path d="M133.13 37.3588V12.4042H144.931V37.3588H133.13ZM143.729 4.69921H143.826C143.855 5.22094 143.762 5.74225 143.555 6.21984C143.349 6.69742 143.034 7.11752 142.637 7.44528C141.769 8.11572 140.701 8.45721 139.615 8.41175C138.536 8.45114 137.475 8.12043 136.6 7.47195C136.194 7.14508 135.871 6.72202 135.659 6.23908C135.448 5.75613 135.353 5.22773 135.385 4.69921C135.385 2.27306 136.78 1.06 139.57 1.06C142.36 1.06 143.746 2.25307 143.729 4.63922V4.69921Z" fill="#82B5FF"></path><path d="M133.13 37.3588V12.4042H144.931V37.3588H133.13ZM143.729 4.69921H143.826C143.855 5.22094 143.762 5.74225 143.555 6.21984C143.349 6.69742 143.034 7.11752 142.637 7.44528C141.769 8.11572 140.701 8.45721 139.615 8.41175C138.536 8.45114 137.475 8.12043 136.6 7.47195C136.194 7.14508 135.871 6.72202 135.659 6.23908C135.448 5.75613 135.353 5.22773 135.385 4.69921C135.385 2.27306 136.78 1.06 139.57 1.06C142.36 1.06 143.746 2.25307 143.729 4.63922V4.69921Z" fill="black" fill-opacity="0.5"></path><path d="M151.839 37.2255V21.4889H148.525V12.3042H151.839V4.03265H163.634V12.2775H166.993V21.4622H163.634V37.2255H151.839Z" fill="#82B5FF"></path><path d="M151.839 37.2255V21.4889H148.525V12.3042H151.839V4.03265H163.634V12.2775H166.993V21.4622H163.634V37.2255H151.839Z" fill="black" fill-opacity="0.5"></path><path d="M197.666 24.8415C197.691 27.5961 196.818 30.2802 195.184 32.4666C193.578 34.6939 191.354 36.3713 188.802 37.2789C187.087 37.8861 185.282 38.186 183.467 38.1653C179.946 38.2625 176.512 37.0371 173.81 34.7194C172.364 33.5413 171.201 32.0376 170.412 30.3247C169.624 28.6118 169.23 26.7356 169.261 24.8415C169.23 22.9466 169.624 21.0696 170.413 19.3557C171.202 17.6418 172.364 16.1368 173.81 14.957C176.512 12.6394 179.946 11.4139 183.467 11.5111C187.018 11.3946 190.487 12.621 193.215 14.957C194.634 16.1547 195.772 17.6657 196.543 19.3772C197.313 21.0887 197.697 22.9565 197.666 24.8415ZM183.467 28.2408C183.873 28.2578 184.278 28.1768 184.648 28.0043C185.018 27.8318 185.344 27.5727 185.598 27.2477C186.115 26.5595 186.383 25.7095 186.359 24.8415C186.359 22.5754 185.395 21.4423 183.467 21.4423C183.064 21.4276 182.664 21.5091 182.298 21.6803C181.931 21.8515 181.608 22.1077 181.355 22.4287C180.828 23.1145 180.554 23.9689 180.582 24.8415C180.555 25.7119 180.829 26.564 181.355 27.2477C181.608 27.5699 181.93 27.8274 182.297 27.9997C182.663 28.1721 183.064 28.2546 183.467 28.2408Z" fill="#82B5FF"></path><path d="M197.666 24.8415C197.691 27.5961 196.818 30.2802 195.184 32.4666C193.578 34.6939 191.354 36.3713 188.802 37.2789C187.087 37.8861 185.282 38.186 183.467 38.1653C179.946 38.2625 176.512 37.0371 173.81 34.7194C172.364 33.5413 171.201 32.0376 170.412 30.3247C169.624 28.6118 169.23 26.7356 169.261 24.8415C169.23 22.9466 169.624 21.0696 170.413 19.3557C171.202 17.6418 172.364 16.1368 173.81 14.957C176.512 12.6394 179.946 11.4139 183.467 11.5111C187.018 11.3946 190.487 12.621 193.215 14.957C194.634 16.1547 195.772 17.6657 196.543 19.3772C197.313 21.0887 197.697 22.9565 197.666 24.8415ZM183.467 28.2408C183.873 28.2578 184.278 28.1768 184.648 28.0043C185.018 27.8318 185.344 27.5727 185.598 27.2477C186.115 26.5595 186.383 25.7095 186.359 24.8415C186.359 22.5754 185.395 21.4423 183.467 21.4423C183.064 21.4276 182.664 21.5091 182.298 21.6803C181.931 21.8515 181.608 22.1077 181.355 22.4287C180.828 23.1145 180.554 23.9689 180.582 24.8415C180.555 25.7119 180.829 26.564 181.355 27.2477C181.608 27.5699 181.93 27.8274 182.297 27.9997C182.663 28.1721 183.064 28.2546 183.467 28.2408Z" fill="black" fill-opacity="0.5"></path></g><defs><clipPath id="clip0_91_126"><rect width="38" height="38" fill="white" transform="translate(0.666504 0.582642)"></rect></clipPath><clipPath id="clip1_91_126"><rect width="147.113" height="37.1653" fill="white" transform="translate(50.5535 1)"></rect></clipPath></defs></svg>